{"title":"Cobra 1986 DVDrip English Klam","uid":5855260,"size":1471112299,"categoryP":"video","categoryS":"movies","magnet":"?xt=urn:btih:24e2f86448e2b4d81340837ec3ebfda8bc8d0631&amp;dn=Cobra+1986+DVDrip+English+Klam&amp;tr=udp%3A%2F%2Ftracker.openbittorrent.com%3A80&amp;tr=udp%3A%2F%2Fopen.demonii.com%3A1337&amp;tr=udp%3A%2F%2Ftracker.coppersurfer.tk%3A6969&amp;tr=udp%3A%2F%2Fexodus.desync.com%3A6969","seeders":0,"leechers":1,"uploader":"Klambake","files":6,"time":1285582563,"description":"\n\nWith: Sylvester Stallone, Brigitte Nielsen en Reni Santoni\n\nCity cop is on the trail of a serial killer. Loaded with action and violence. Stallone fans will love this Rambo-like movie with Stallone on the chase instead of the run.\n\nGeneral:\n\nComplete name                    : Klambake\\Cobra\\Cobra.avi\nFormat                           : AVI\nFormat/Info                      : Audio Video Interleave\nFile size                        : 1.37 GiB\nDuration                         : 1h 23mn\nOverall bit rate                 : 2 348 Kbps\n\nVideo:\n\nFormat                           : MPEG-4 Visual\nFormat profile                   : Simple@L3\nFormat settings, BVOP            : No\nFormat settings, QPel            : No\nFormat settings, GMC             : No warppoints\nFormat settings, Matrix          : Default (H.263)\nCodec ID                         : XVID\nCodec ID/Hint                    : XviD\nDuration                         : 1h 23mn\nBit rate                         : 1 953 Kbps\nWidth                            : 720 pixels\nHeight                           : 400 pixels\nDisplay aspect ratio             : 16:9\nFrame rate                       : 25.000 fps\nColor space                      : YUV\nChroma subsampling               : 4:2:0\nBit depth                        : 8 bits\nScan type                        : Progressive\nBits/(Pixel*Frame)               : 0.271\nStream size                      : 1.14 GiB (83%)\nWriting library                  : XviD 1.1.2 (UTC 2006-11-01)\n\nAudio:\n\nFormat                           : AC-3\nFormat/Info                      : Audio Coding 3\nMode extension                   : CM (complete main)\nCodec ID                         : 2000\nDuration                         : 1h 23mn\nBit rate mode                    : Constant\nBit rate                         : 384 Kbps\nChannel(s)                       : 6 channels\nChannel positions                : Front: L C R, Side: L R, LFE\nSampling rate                    : 48.0 KHz\nStream size                      : 229 MiB (16%)\nAlignment                        : Aligned on interleaves\nInterleave, duration             : 32 ms (0.80 video frame)\nInterleave, preload duration     : 192 ms","torrent":{"xt":"urn:btih:24e2f86448e2b4d81340837ec3ebfda8bc8d0631","amp;dn":"Cobra+1986+DVDrip+English+Klam","amp;tr":["udp%3A%2F%2Ftracker.openbittorrent.com%3A80","udp%3A%2F%2Fopen.demonii.com%3A1337","udp%3A%2F%2Ftracker.coppersurfer.tk%3A6969","udp%3A%2F%2Fexodus.desync.com%3A6969"],"infoHash":"24e2f86448e2b4d81340837ec3ebfda8bc8d0631","infoHashBuffer":{"type":"Buffer","data":[36,226,248,100,72,226,180,216,19,64,131,126,195,235,253,168,188,141,6,49]},"announce":[],"urlList":[]}}